# Blender v2.74 (sub 0) OBJ File: 'artillery.blend'
# www.blender.org
o Cube_Cube.001
v 0.314748 -0.371722 0.218197
v 0.314748 -0.318660 0.218197
v 0.314748 -0.371722 -0.256403
v 0.314748 -0.211579 -0.256403
v 0.314748 -0.241647 0.030053
v 0.314748 -0.425392 0.010561
v 0.157252 -0.212080 -0.256403
v 0.157252 -0.371722 0.218197
v 0.157252 -0.371722 -0.256403
v 0.157252 -0.287523 0.218197
v 0.157252 -0.219505 0.030053
v 0.157252 -0.425392 0.010561
v -0.315237 -0.371722 0.218197
v -0.315237 -0.318660 0.218197
v -0.315237 -0.371722 -0.256403
v -0.315237 -0.211579 -0.256403
v -0.000244 -0.212080 -0.256403
v -0.000244 -0.371722 -0.256403
v -0.000244 -0.270225 0.218197
v -0.000244 -0.371722 0.218197
v -0.315237 -0.241647 0.030053
v -0.315237 -0.425392 0.010561
v -0.000244 -0.219505 0.030053
v -0.000244 -0.425392 0.010561
v -0.157741 -0.212080 -0.256403
v -0.157741 -0.371722 0.218197
v -0.157741 -0.371722 -0.256403
v -0.157741 -0.287523 0.218197
v -0.157741 -0.219505 0.030053
v -0.157741 -0.425392 0.010561
vt 0.373181 0.122640
vt 0.372736 0.000000
vt 0.514785 0.000000
vt 0.351140 0.744863
vt 0.351140 0.618437
vt 0.504763 0.490558
vt 0.514785 0.122640
vt 0.737534 0.000000
vt 0.372624 0.122640
vt 0.372624 0.245279
vt 0.160472 0.245279
vt 0.966810 0.613198
vt 1.000000 0.735837
vt 0.805258 0.735837
vt 0.160472 0.122640
vt 0.010856 0.245279
vt 0.702281 0.613198
vt 0.702281 0.490558
vt 0.805258 0.490558
vt 0.490342 0.928359
vt 0.702281 0.618437
vt 0.702281 0.735837
vt 0.805258 0.613198
vt 0.155510 0.000000
vt 0.006979 0.122640
vt 0.907067 0.490558
vt 0.514785 0.245279
vt 0.737534 0.122640
vt 0.373181 0.367919
vt 0.514785 0.367919
vt 0.514785 0.490558
vt 0.153623 1.000000
vt 0.000000 0.872122
vt 0.000000 0.745695
vt 0.737534 0.490558
vt 0.372624 0.367919
vt 0.966810 0.858477
vt 0.805258 0.858477
vt 0.160472 0.367919
vt 0.805258 0.981116
vt 0.702281 0.981117
vt 0.702281 0.858477
vt 0.351140 0.872122
vt 0.139202 0.562199
vt 0.006979 0.367919
vt 0.155510 0.490558
vt 0.907067 0.981116
vt 0.372736 0.490558
vt 0.737534 0.367919
vt 0.702281 1.000000
vt 0.000000 0.000000
vt 0.737534 0.245279
vt 0.373181 0.245279
vt 0.351140 0.490558
vt 0.000000 0.490558
vn 0.000000 0.000000 -1.000000
vn 1.000000 0.000000 0.000000
vn 0.000000 -0.980400 -0.197100
vn 0.000000 0.999700 0.025900
vn -0.000000 0.000000 1.000000
vn 0.000000 0.965500 0.260300
vn 0.000000 -0.968200 0.250300
vn 0.131100 0.932300 0.337100
vn -0.003200 0.999700 0.025900
vn -1.000000 0.000000 0.000000
vn -0.131100 0.932300 0.337100
vn 0.003200 0.999700 0.025900
vn 0.102700 0.935500 0.338200
vn 0.180000 0.910400 0.372600
vn 0.138500 0.985000 0.103400
vn -0.102700 0.935500 0.338200
vn -0.180000 0.910400 0.372600
vn -0.138500 0.985000 0.103400
s off
f 7/1/1 4/2/1 3/3/1
f 2/4/2 1/5/2 6/6/2
f 9/7/3 3/3/3 6/8/3
f 7/9/4 17/10/4 23/11/4
f 10/12/5 19/13/5 20/14/5
f 11/15/6 23/11/6 19/16/6
f 12/17/7 6/18/7 1/19/7
f 5/20/2 6/6/2 3/21/2
f 24/22/7 12/17/7 8/23/7
f 5/24/8 11/15/8 10/25/8
f 2/26/5 10/12/5 8/23/5
f 4/2/9 7/9/9 11/15/9
f 18/27/3 9/7/3 12/28/3
f 7/1/1 9/7/1 18/27/1
f 25/29/1 27/30/1 15/31/1
f 22/32/10 13/33/10 14/34/10
f 22/35/3 15/31/3 27/30/3
f 23/11/4 17/10/4 25/36/4
f 28/37/5 26/38/5 20/14/5
f 19/16/6 23/11/6 29/39/6
f 13/40/7 22/41/7 30/42/7
f 15/43/10 22/32/10 21/44/10
f 26/38/7 30/42/7 24/22/7
f 28/45/11 29/39/11 21/46/11
f 14/47/5 13/40/5 26/38/5
f 29/39/12 25/36/12 16/48/12
f 30/49/3 27/30/3 18/27/3
f 18/27/1 27/30/1 25/29/1
f 9/7/1 7/1/1 3/3/1
f 5/20/2 2/4/2 6/6/2
f 12/28/3 9/7/3 6/8/3
f 11/15/4 7/9/4 23/11/4
f 8/23/5 10/12/5 20/14/5
f 10/25/13 11/15/13 19/16/13
f 8/23/7 12/17/7 1/19/7
f 4/50/2 5/20/2 3/21/2
f 20/14/7 24/22/7 8/23/7
f 2/51/14 5/24/14 10/25/14
f 1/19/5 2/26/5 8/23/5
f 5/24/15 4/2/15 11/15/15
f 24/52/3 18/27/3 12/28/3
f 17/53/1 7/1/1 18/27/1
f 16/48/1 25/29/1 15/31/1
f 21/44/10 22/32/10 14/34/10
f 30/49/3 22/35/3 27/30/3
f 29/39/4 23/11/4 25/36/4
f 19/13/5 28/37/5 20/14/5
f 28/45/16 19/16/16 29/39/16
f 26/38/7 13/40/7 30/42/7
f 16/54/10 15/43/10 21/44/10
f 20/14/7 26/38/7 24/22/7
f 14/55/17 28/45/17 21/46/17
f 28/37/5 14/47/5 26/38/5
f 21/46/18 29/39/18 16/48/18
f 24/52/3 30/49/3 18/27/3
f 17/53/1 18/27/1 25/29/1
