# Blender v2.74 (sub 0) OBJ File: 'artillery.blend'
# www.blender.org
o Cube.002_Cube.004
v 0.415576 -0.505243 -0.371820
v 0.361964 -0.279876 -0.252898
v 0.311701 -0.505243 -0.371820
v 0.311701 -0.278161 -0.252898
v 0.415576 -0.507313 -0.177042
v 0.311701 -0.220890 -0.146309
v 0.334233 -0.226184 -0.146309
v 0.311701 -0.507313 -0.177042
v 0.406997 -0.367068 -0.300485
v 0.311701 -0.371165 -0.300485
v 0.409156 -0.371247 -0.151055
v 0.311701 -0.375624 -0.151055
v 0.415576 -0.505243 0.249621
v 0.361964 -0.279876 0.130698
v 0.311700 -0.505243 0.249621
v 0.311700 -0.278161 0.130698
v 0.344256 -0.245590 -0.061100
v 0.311701 -0.241590 -0.061100
v 0.415576 -0.507313 0.054842
v 0.311701 -0.220890 0.024110
v 0.334233 -0.226184 0.024110
v 0.311701 -0.507313 0.054842
v 0.406997 -0.367068 0.178286
v 0.311700 -0.371165 0.178286
v 0.311701 -0.346167 -0.061100
v 0.394893 -0.343632 -0.061100
v 0.409156 -0.371247 0.028856
v 0.311701 -0.375624 0.028856
v -0.420091 -0.505243 0.249621
v -0.366479 -0.279876 0.130698
v -0.316216 -0.505243 0.249621
v -0.316216 -0.278161 0.130698
v -0.420091 -0.507313 0.054842
v -0.316216 -0.220890 0.024110
v -0.338748 -0.226184 0.024110
v -0.316216 -0.507313 0.054842
v -0.411512 -0.367068 0.178286
v -0.316216 -0.371165 0.178286
v -0.413671 -0.371247 0.028856
v -0.316216 -0.375624 0.028856
v -0.420091 -0.505243 -0.371820
v -0.366479 -0.279876 -0.252898
v -0.316216 -0.505243 -0.371820
v -0.316216 -0.278161 -0.252898
v -0.348771 -0.245590 -0.061100
v -0.316216 -0.241590 -0.061100
v -0.420091 -0.507313 -0.177042
v -0.316216 -0.220890 -0.146309
v -0.338748 -0.226184 -0.146309
v -0.316216 -0.507313 -0.177042
v -0.411512 -0.367068 -0.300485
v -0.316216 -0.371165 -0.300485
v -0.316216 -0.346167 -0.061100
v -0.399408 -0.343632 -0.061100
v -0.413671 -0.371247 -0.151055
v -0.316216 -0.375624 -0.151055
vt 0.109875 0.379006
vt 0.001671 0.428153
vt 0.000000 0.293957
vt 0.360086 0.446027
vt 0.462304 0.428153
vt 0.462304 0.644568
vt 0.663626 0.505120
vt 0.596372 0.504528
vt 0.617078 0.449669
vt 0.462304 0.851780
vt 0.462304 0.648742
vt 0.523757 0.678457
vt 0.945193 0.261620
vt 0.945193 0.364635
vt 0.834360 0.350588
vt 0.266123 0.644568
vt 0.266123 0.860982
vt 0.133061 0.860982
vt 0.663626 0.369765
vt 0.663626 0.450452
vt 0.796687 0.649243
vt 0.796687 0.432829
vt 0.907991 0.446205
vt 0.231152 0.272783
vt 0.106277 0.276053
vt 0.130049 0.214077
vt 0.559792 0.369511
vt 0.462304 0.424992
vt 0.491768 0.490023
vt 0.295869 0.539849
vt 0.363352 0.644568
vt 0.184932 0.346220
vt 0.000000 0.134196
vt 0.001671 0.000000
vt 0.109875 0.049147
vt 0.831427 0.216414
vt 0.831427 0.432829
vt 0.729209 0.414955
vt 0.617078 0.565129
vt 0.585209 0.648742
vt 0.585209 0.851780
vt 1.000000 0.752258
vt 0.886234 0.797463
vt 0.889167 0.663289
vt 0.294503 0.860982
vt 0.294503 0.644568
vt 0.427564 0.644568
vt 0.663626 0.629654
vt 0.559792 0.629400
vt 0.663626 0.662619
vt 0.774930 0.649243
vt 0.774930 0.865657
vt 0.106277 0.152100
vt 0.231152 0.155370
vt 0.466764 0.648742
vt 0.462304 0.546883
vt 0.732475 0.216414
vt 0.664992 0.321133
vt 0.184932 0.081934
vt 0.341027 0.379006
vt 0.232823 0.428153
vt 0.231152 0.293957
vt 0.729209 0.017873
vt 0.831427 0.000000
vt 0.462304 0.180749
vt 0.529558 0.180157
vt 0.508851 0.240758
vt 0.294503 0.428153
vt 0.294503 0.631192
vt 0.233050 0.601476
vt 1.000000 0.842669
vt 1.000000 0.945684
vt 0.889167 0.931638
vt 0.133061 0.644568
vt 0.000000 0.860982
vt 0.462304 0.305283
vt 0.462304 0.241541
vt 0.942732 0.013376
vt 0.462304 0.272783
vt 0.337429 0.276053
vt 0.361201 0.214077
vt 0.566138 0.305029
vt 0.663626 0.222512
vt 0.634162 0.165653
vt 0.664992 0.111695
vt 0.416085 0.346220
vt 0.231152 0.134196
vt 0.232823 0.000000
vt 0.341027 0.049147
vt 0.000000 0.644568
vt 0.000000 0.428153
vt 0.102218 0.446027
vt 0.508852 0.125298
vt 0.171598 0.631192
vt 0.171598 0.428153
vt 0.576070 0.954794
vt 0.462304 1.000000
vt 0.465237 0.865826
vt 0.663626 0.649243
vt 0.663626 0.432829
vt 0.462304 0.045394
vt 0.566138 0.045140
vt 0.774930 0.662619
vt 0.886234 0.649243
vt 0.886234 0.865657
vt 0.337429 0.152100
vt 0.462304 0.155370
vt 0.659166 0.000000
vt 0.663626 0.100622
vt 0.098953 0.644568
vt 0.166435 0.539849
vt 0.416085 0.081934
vt 0.523757 0.851780
vt 0.904504 0.649243
vt 0.214446 0.214077
vt 0.466764 0.324371
vt 0.663626 0.565912
vt 1.000000 0.649243
vt 0.427564 0.860982
vt 0.667113 0.865657
vt 0.663626 0.216414
vt 0.233050 0.428153
vt 0.939244 0.216414
vt 0.445598 0.214077
vt 0.659166 0.324371
vt 0.462304 0.126081
vt 0.576070 0.851780
vt 0.778417 0.865657
vt 0.167802 0.644568
vn -0.714200 0.327600 -0.618500
vn -0.557600 -0.426500 -0.712100
vn -0.587100 -0.627100 0.511900
vn 0.691000 0.447600 -0.567600
vn 0.571600 -0.418200 -0.705900
vn -0.716600 0.697400 0.000000
vn 0.626700 0.779300 0.000000
vn 0.530900 0.842300 -0.092500
vn -0.834100 -0.362300 0.415800
vn 0.893700 -0.073000 0.442700
vn 0.918200 -0.396000 0.000000
vn 0.605900 -0.610700 0.509900
vn -0.633500 0.552200 -0.541900
vn -0.547000 0.831000 -0.101200
vn -0.775100 -0.631800 0.000000
vn 0.491800 0.704900 -0.511000
vn -0.587100 -0.627100 -0.511900
vn -0.557600 -0.426500 0.712100
vn -0.714200 0.327600 0.618500
vn 0.571600 -0.418200 0.705900
vn 0.691000 0.447600 0.567600
vn 0.530900 0.842300 0.092500
vn 0.893700 -0.073000 -0.442700
vn -0.834100 -0.362300 -0.415800
vn 0.605900 -0.610700 -0.509900
vn -0.633500 0.552200 0.541900
vn 0.491800 0.704900 0.511000
vn -0.547000 0.831000 0.101200
vn 0.714200 0.327600 0.618500
vn 0.557600 -0.426500 0.712100
vn 0.587100 -0.627100 -0.511900
vn -0.691000 0.447600 0.567600
vn -0.571600 -0.418200 0.705900
vn 0.716600 0.697400 0.000000
vn -0.626700 0.779300 0.000000
vn -0.530900 0.842300 0.092500
vn 0.834100 -0.362300 -0.415800
vn -0.893700 -0.073000 -0.442700
vn -0.918200 -0.396000 0.000000
vn -0.605900 -0.610700 -0.509900
vn 0.633500 0.552200 0.541900
vn 0.547000 0.831000 0.101200
vn 0.775100 -0.631800 0.000000
vn -0.491800 0.704900 0.511000
vn 0.587100 -0.627100 0.511900
vn 0.557600 -0.426500 -0.712100
vn 0.714200 0.327600 -0.618500
vn -0.571600 -0.418200 -0.705900
vn -0.691000 0.447600 -0.567600
vn -0.530900 0.842300 -0.092500
vn -0.893700 -0.073000 0.442700
vn 0.834100 -0.362300 0.415800
vn -0.605900 -0.610700 0.509900
vn 0.633500 0.552200 -0.541900
vn -0.491800 0.704900 -0.511000
vn 0.547000 0.831000 -0.101200
s 1
f 10/1/1 3/2/2 8/3/3
f 9/4/4 1/5/5 3/6/2
f 18/7/6 17/8/7 7/9/8
f 12/10/9 11/11/10 26/12/11
f 9/13/4 11/14/10 5/15/12
f 5/16/12 8/17/3 3/18/2
f 4/19/13 6/20/14 7/9/8
f 8/21/3 5/22/12 11/23/10
f 6/24/14 12/25/9 25/26/15
f 2/27/16 7/9/8 11/28/10
f 7/9/8 17/8/7 26/29/11
f 2/30/16 9/4/4 10/31/1
f 4/32/13 10/1/1 12/25/9
f 22/33/17 15/34/18 24/35/19
f 15/36/18 13/37/20 23/38/21
f 21/39/22 17/8/7 18/7/6
f 26/12/11 27/40/23 28/41/24
f 23/42/21 13/43/20 19/44/25
f 13/45/20 15/46/18 22/47/17
f 16/48/26 14/49/27 21/39/22
f 27/50/23 19/51/25 22/52/17
f 25/26/15 28/53/24 20/54/28
f 14/49/27 23/55/21 27/56/23
f 21/39/22 27/56/23 26/29/11
f 24/57/19 23/38/21 14/58/27
f 28/53/24 24/35/19 16/59/26
f 38/60/29 31/61/30 36/62/31
f 37/63/32 29/64/33 31/36/30
f 46/65/34 45/66/35 35/67/36
f 40/68/37 39/69/38 54/70/39
f 37/71/32 39/72/38 33/73/40
f 33/74/40 36/18/31 31/75/30
f 32/76/41 34/77/42 35/67/36
f 36/36/31 33/64/40 39/78/38
f 34/79/42 40/80/37 53/81/43
f 30/82/44 35/67/36 39/83/38
f 35/67/36 45/66/35 54/84/39
f 30/85/44 37/63/32 38/57/29
f 32/86/41 38/60/29 40/80/37
f 50/87/45 43/88/46 52/89/47
f 43/90/46 41/91/48 51/92/49
f 49/93/50 45/66/35 46/65/34
f 54/70/39 55/94/51 56/95/52
f 51/96/49 41/97/48 47/98/53
f 43/21/46 50/99/45 47/100/53
f 44/101/54 42/102/55 49/93/50
f 55/103/51 47/104/53 50/105/45
f 53/81/43 56/106/52 48/107/56
f 42/102/55 51/108/49 55/109/51
f 49/93/50 55/109/51 54/84/39
f 52/110/47 51/92/49 42/111/55
f 56/106/52 52/89/47 44/112/54
f 12/25/9 10/1/1 8/3/3
f 10/31/1 9/4/4 3/6/2
f 6/20/14 18/7/6 7/9/8
f 25/113/15 12/10/9 26/12/11
f 1/36/5 9/13/4 5/15/12
f 1/74/5 5/16/12 3/18/2
f 2/27/16 4/19/13 7/9/8
f 12/114/9 8/21/3 11/23/10
f 18/115/6 6/24/14 25/26/15
f 9/116/4 2/27/16 11/28/10
f 11/28/10 7/9/8 26/29/11
f 4/46/13 2/30/16 10/31/1
f 6/24/14 4/32/13 12/25/9
f 28/53/24 22/33/17 24/35/19
f 24/57/19 15/36/18 23/38/21
f 20/117/28 21/39/22 18/7/6
f 25/113/15 26/12/11 28/41/24
f 27/118/23 23/42/21 19/44/25
f 19/119/25 13/45/20 22/47/17
f 20/117/28 16/48/26 21/39/22
f 28/120/24 27/50/23 22/52/17
f 18/115/6 25/26/15 20/54/28
f 21/39/22 14/49/27 27/56/23
f 17/8/7 21/39/22 26/29/11
f 16/121/26 24/57/19 14/58/27
f 20/54/28 28/53/24 16/59/26
f 40/80/37 38/60/29 36/62/31
f 38/57/29 37/63/32 31/36/30
f 34/77/42 46/65/34 35/67/36
f 53/122/43 40/68/37 54/70/39
f 29/43/33 37/71/32 33/73/40
f 29/90/33 33/74/40 31/75/30
f 30/82/44 32/76/41 35/67/36
f 40/123/37 36/36/31 39/78/38
f 46/124/34 34/79/42 53/81/43
f 37/125/32 30/82/44 39/83/38
f 39/83/38 35/67/36 54/84/39
f 32/121/41 30/85/44 38/57/29
f 34/79/42 32/86/41 40/80/37
f 56/106/52 50/87/45 52/89/47
f 52/110/47 43/90/46 51/92/49
f 48/126/56 49/93/50 46/65/34
f 53/122/43 54/70/39 56/95/52
f 55/127/51 51/96/49 47/98/53
f 41/22/48 43/21/46 47/100/53
f 48/126/56 44/101/54 49/93/50
f 56/128/52 55/103/51 50/105/45
f 46/124/34 53/81/43 48/107/56
f 49/93/50 42/102/55 55/109/51
f 45/66/35 49/93/50 54/84/39
f 44/129/54 52/110/47 42/111/55
f 48/107/56 56/106/52 44/112/54
