# Blender v2.74 (sub 0) OBJ File: 'artillery.blend'
# www.blender.org
o Cube.004_Cube.006
v 0.048023 -0.073867 -0.023948
v 0.048023 0.354860 0.174823
v 0.048023 -0.067817 -0.036998
v 0.048023 0.360910 0.161774
v 0.111875 -0.073867 -0.023948
v 0.175477 0.354860 0.174823
v 0.111875 -0.067817 -0.036998
v 0.175477 0.360910 0.161774
v 0.048023 0.304717 0.151575
v 0.048023 0.310767 0.138526
v 0.111875 0.310767 0.138526
v 0.111875 0.304717 0.151575
v -0.048512 -0.073867 -0.023948
v -0.048512 0.354860 0.174823
v -0.048512 -0.067817 -0.036998
v -0.048512 0.360910 0.161774
v -0.112364 -0.073867 -0.023948
v -0.175966 0.354860 0.174823
v -0.112364 -0.067817 -0.036998
v -0.175966 0.360910 0.161774
v -0.048512 0.304717 0.151575
v -0.048512 0.310767 0.138526
v -0.112364 0.310767 0.138526
v -0.112364 0.304717 0.151575
vt 0.876370 0.101461
vt 0.901096 0.101461
vt 0.901096 0.867494
vt 0.547517 0.766033
vt 0.547517 0.000000
vt 0.657277 0.000000
vt 0.975274 0.766033
vt 0.950548 0.766033
vt 0.950548 0.000000
vt 0.438185 0.101461
vt 0.438185 0.867494
vt 0.328424 0.867494
vt 0.024726 0.984707
vt 0.024726 0.867494
vt 0.049452 0.867494
vt 1.000000 0.000000
vt 1.000000 0.233967
vt 0.975274 0.233967
vt 0.438185 0.000000
vt 0.328424 0.101461
vt 0.074178 0.984249
vt 0.049452 0.984249
vt 0.657278 0.867494
vt 0.901096 0.000000
vt 0.925822 0.000000
vt 0.925822 0.766033
vt 0.219093 0.867494
vt 0.109332 0.867494
vt 0.109332 0.101461
vt 0.767038 0.867494
vt 0.657278 0.101461
vt 0.000000 0.984707
vt 0.000000 0.867494
vt 0.950548 1.000000
vt 0.767038 0.101461
vt 0.074178 0.867494
vt 0.098904 0.867494
vt 0.219092 0.000000
vt 0.219092 0.101461
vt 0.901096 0.766033
vt 0.925822 0.867494
vt 0.876370 0.867494
vt 0.657278 0.766033
vt 0.975274 0.000000
vt 0.049452 0.984707
vt 0.876370 0.000000
vt 0.925822 1.000000
vt 0.098904 0.984249
vt 0.000000 0.000000
vn -1.000000 0.000000 0.000000
vn 0.000000 0.420600 -0.907200
vn 1.000000 0.000000 0.000000
vn 0.000000 -0.420600 0.907200
vn 0.000000 -0.907200 -0.420600
vn 0.000000 0.907200 0.420600
vn 0.655900 -0.684800 -0.317500
vn -0.655900 -0.684800 -0.317500
s off
f 9/1/1 10/2/1 3/3/1
f 11/4/2 7/5/2 3/6/2
f 11/7/3 12/8/3 5/9/3
f 9/10/4 1/11/4 5/12/4
f 3/13/5 7/14/5 5/15/5
f 8/16/6 4/17/6 2/18/6
f 2/19/4 9/10/4 12/20/4
f 8/21/7 6/22/7 12/15/7
f 4/23/2 8/11/2 11/4/2
f 4/24/1 10/2/1 9/1/1
f 13/24/3 15/25/3 22/26/3
f 15/27/2 19/28/2 23/29/2
f 19/8/1 17/26/1 24/25/1
f 17/30/4 13/23/4 21/31/4
f 17/13/5 19/32/5 15/33/5
f 14/26/6 16/8/6 20/34/6
f 24/35/4 21/31/4 14/6/4
f 20/21/8 23/36/8 24/37/8
f 16/38/2 22/39/2 23/29/2
f 21/40/3 22/26/3 16/41/3
f 1/42/1 9/1/1 3/3/1
f 10/43/2 11/4/2 3/6/2
f 7/44/3 11/7/3 5/9/3
f 12/20/4 9/10/4 5/12/4
f 1/45/5 3/13/5 5/15/5
f 6/44/6 8/16/6 2/18/6
f 6/38/4 2/19/4 12/20/4
f 11/36/7 8/21/7 12/15/7
f 10/43/2 4/23/2 11/4/2
f 2/46/1 4/24/1 9/1/1
f 21/40/3 13/24/3 22/26/3
f 22/39/2 15/27/2 23/29/2
f 23/9/1 19/8/1 24/25/1
f 24/35/4 17/30/4 21/31/4
f 13/14/5 17/13/5 15/33/5
f 18/47/6 14/26/6 20/34/6
f 18/46/4 24/35/4 14/6/4
f 18/48/8 20/21/8 24/37/8
f 20/49/2 16/38/2 23/29/2
f 14/3/3 21/40/3 16/41/3
