# Blender v2.74 (sub 0) OBJ File: 'artillery.blend'
# www.blender.org
o Cylinder_Cylinder.001
v 0.000000 3736.310303 -0.217523
v 0.000000 -0.050537 -0.217523
v 0.138390 3736.310303 -0.160199
v 0.138390 -0.050537 -0.160199
v 0.195713 3736.310303 -0.021809
v 0.195713 -0.050537 -0.021809
v 0.138390 3736.310303 0.116581
v 0.138390 -0.050537 0.116581
v -0.000000 3736.310303 0.173904
v -0.000000 -0.050537 0.173904
v -0.138390 3736.310303 0.116581
v -0.138390 -0.050537 0.116581
v -0.195713 3736.310303 -0.021809
v -0.195713 -0.050537 -0.021809
v -0.138390 3736.310303 -0.160199
v -0.138390 -0.050537 -0.160199
vt 0.609476 0.000000
vt 0.804738 0.000000
vt 0.804738 0.500000
vt 0.471404 0.500000
vt 0.333333 0.500000
vt 0.333333 0.000000
vt 0.138071 0.500000
vt 0.138071 0.000000
vt 0.000000 0.500000
vt 0.000000 0.000000
vt 1.000000 0.000000
vt 1.000000 0.500000
vt 0.333333 1.000000
vt 0.195262 1.000000
vt 0.195262 0.500000
vt 0.000000 1.000000
vt 0.471404 0.000000
vt 0.609476 0.500000
vn -0.382700 0.000000 0.923900
vn -0.923900 0.000000 0.382700
vn -0.923900 0.000000 -0.382700
vn -0.382700 0.000000 -0.923900
vn 0.382700 0.000000 -0.923900
vn 0.923900 0.000000 -0.382700
vn 0.923900 0.000000 0.382700
vn 0.382700 0.000000 0.923900
s off
f 2/1/1 4/2/1 3/3/1
f 4/4/2 6/5/2 5/6/2
f 6/5/3 8/7/3 7/8/3
f 8/7/4 10/9/4 9/10/4
f 10/2/5 12/11/5 11/12/5
f 12/13/6 14/14/6 13/15/6
f 14/14/7 16/16/7 15/9/7
f 16/17/8 2/1/8 1/18/8
f 1/18/1 2/1/1 3/3/1
f 3/17/2 4/4/2 5/6/2
f 5/6/3 6/5/3 7/8/3
f 7/8/4 8/7/4 9/10/4
f 9/3/5 10/2/5 11/12/5
f 11/5/6 12/13/6 13/15/6
f 13/15/7 14/14/7 15/9/7
f 15/4/8 16/17/8 1/18/8
