# Blender v2.74 (sub 0) OBJ File: 'artillery.blend'
# www.blender.org
o Cylinder_Cylinder.001
v 0.000000 3736.069336 -0.217523
v 0.000000 -0.291382 -0.217523
v 0.138390 3736.069336 -0.160199
v 0.138390 -0.291382 -0.160199
v 0.195713 3736.069336 -0.021809
v 0.195713 -0.291382 -0.021809
v 0.138390 3736.069336 0.116581
v 0.138390 -0.291382 0.116581
v -0.000000 3736.069336 0.173904
v -0.000000 -0.291382 0.173904
v -0.138390 3736.069336 0.116581
v -0.138390 -0.291382 0.116581
v -0.195713 3736.069336 -0.021809
v -0.195713 -0.291382 -0.021809
v -0.138390 3736.069336 -0.160199
v -0.138390 -0.291382 -0.160199
vt 0.804738 0.500000
vt 0.804738 0.000000
vt 0.609476 0.000000
vt 0.333333 0.000000
vt 0.333333 0.500000
vt 0.471404 0.500000
vt 0.138071 0.000000
vt 0.138071 0.500000
vt 0.000000 0.000000
vt 0.000000 0.500000
vt 1.000000 0.500000
vt 1.000000 0.000000
vt 0.195262 0.500000
vt 0.195262 1.000000
vt 0.333333 1.000000
vt 0.000000 1.000000
vt 0.609476 0.500000
vt 0.471404 0.000000
vn 0.707100 0.000000 -0.707100
vn 0.000000 0.000000 -1.000000
vn 1.000000 0.000000 0.000000
vn 0.707100 0.000000 0.707100
vn 0.000000 0.000000 1.000000
vn -0.707100 0.000000 0.707100
vn -1.000000 0.000000 0.000000
vn -0.707100 0.000000 -0.707100
s 1
f 3/1/1 4/2/1 2/3/2
f 5/4/3 6/5/3 4/6/1
f 7/7/4 8/8/4 6/5/3
f 9/9/5 10/10/5 8/8/4
f 11/11/6 12/12/6 10/2/5
f 13/13/7 14/14/7 12/15/6
f 15/10/8 16/16/8 14/14/7
f 1/17/2 2/3/2 16/18/8
f 1/17/2 3/1/1 2/3/2
f 3/18/1 5/4/3 4/6/1
f 5/4/3 7/7/4 6/5/3
f 7/7/4 9/9/5 8/8/4
f 9/1/5 11/11/6 10/2/5
f 11/5/6 13/13/7 12/15/6
f 13/13/7 15/10/8 14/14/7
f 15/6/8 1/17/2 16/18/8
