# Blender v2.69 (sub 0) OBJ File: ''
# www.blender.org
o Cube_Cube.001
v 254.345184 254.345169 254.345047
v 254.345184 254.344986 -254.345215
v 254.345078 -254.345261 -254.345047
v -254.345078 254.345093 -254.345215
v -254.345184 -254.345169 -254.345047
v -254.345078 254.345261 254.345047
v -254.345184 -254.344986 254.345215
v 254.345078 -254.345093 254.345215
vt 0.250425 0.749123
vt -0.000024 0.748996
vt 0.000016 0.500639
vt 0.999731 0.749533
vt 0.750151 0.749068
vt 0.750023 0.501339
vt 0.750120 0.749075
vt 0.499980 0.749225
vt 0.499875 0.501288
vt 0.499986 0.749232
vt 0.250503 0.749032
vt 0.250243 0.500397
vt 0.250357 0.500247
vt 0.250763 0.250844
vt 0.499429 0.251451
vt 0.250660 0.999534
vt 0.250452 0.749418
vt 0.499206 0.750028
vt 0.250311 0.500418
vt 0.999444 0.501601
vt 0.750088 0.501521
vt 0.499856 0.500862
vt 0.499801 0.500832
vt 0.499495 0.999828
vn -1.000000 0.000000 -0.000000
vn 0.000000 0.000000 1.000000
vn 1.000000 -0.000000 0.000000
vn -0.000000 -0.000000 -1.000000
vn 0.000000 1.000000 -0.000000
vn -0.000000 -1.000000 0.000000
s off
f 1/1/1 2/2/1 3/3/1
f 2/4/2 4/5/2 5/6/2
f 4/7/3 6/8/3 7/9/3
f 6/10/4 1/11/4 8/12/4
f 8/13/5 3/14/5 5/15/5
f 2/16/6 1/17/6 6/18/6
f 8/19/1 1/1/1 3/3/1
f 3/20/2 2/4/2 5/6/2
f 5/21/3 4/7/3 7/9/3
f 7/22/4 6/10/4 8/12/4
f 7/23/5 8/13/5 5/15/5
f 4/24/6 2/16/6 6/18/6
