# Blender v2.69 (sub 0) OBJ File: 'tunnel_1.blend'
# www.blender.org
o Cylinder.001_Cylinder.015
v 0.167184 0.971357 1.000000
v 0.167184 0.971357 -1.000000
v 0.147171 0.970799 1.000000
v 0.147171 0.970800 -1.000000
v 0.130119 0.960310 1.000000
v 0.130119 0.960310 -1.000000
v 0.120595 0.942700 1.000000
v 0.120595 0.942700 -1.000000
v 0.121153 0.922687 1.000000
v 0.121153 0.922687 -1.000000
v 0.131643 0.905634 1.000000
v 0.131643 0.905634 -1.000000
v 0.149253 0.896111 1.000000
v 0.149253 0.896111 -1.000000
v 0.169266 0.896669 1.000000
v 0.169266 0.896669 -1.000000
v 0.186318 0.907158 1.000000
v 0.186318 0.907158 -1.000000
v 0.195841 0.924769 1.000000
v 0.195842 0.924769 -1.000000
v 0.195284 0.944781 1.000000
v 0.195284 0.944782 -1.000000
v 0.184794 0.961834 1.000000
v 0.184794 0.961834 -1.000000
v -0.158477 0.972501 1.000000
v -0.158477 0.972502 -1.000000
v -0.176209 0.963207 1.000000
v -0.176209 0.963207 -1.000000
v -0.186918 0.946291 1.000000
v -0.186918 0.946291 -1.000000
v -0.187734 0.926287 1.000000
v -0.187734 0.926287 -1.000000
v -0.178440 0.908555 1.000000
v -0.178440 0.908555 -1.000000
v -0.161524 0.897846 1.000000
v -0.161524 0.897846 -1.000000
v -0.141520 0.897030 1.000000
v -0.141520 0.897030 -1.000000
v -0.123788 0.906325 1.000000
v -0.123788 0.906325 -1.000000
v -0.113079 0.923240 1.000000
v -0.113079 0.923240 -1.000000
v -0.112263 0.943244 1.000000
v -0.112263 0.943244 -1.000000
v -0.121558 0.960976 1.000000
v -0.121558 0.960976 -1.000000
v -0.138473 0.971685 1.000000
v -0.138473 0.971685 -1.000000
vt 0.909899 -0.001427
vt 0.909899 0.999183
vt 0.807035 -0.001427
vt 0.807035 0.999183
vt 0.717952 -0.001427
vt 0.717952 0.999183
vt 0.666520 -0.001427
vt 0.330529 -0.003760
vt 0.330529 0.996849
vt 0.279097 -0.003760
vt 0.279097 0.996849
vt 0.190014 -0.003760
vt 0.190014 0.996849
vt 0.087150 -0.003760
vt 0.087150 0.996849
vt -0.001933 -0.003760
vt 0.662991 -0.003760
vt 0.662991 0.996849
vt 0.611559 -0.003760
vt 0.611559 0.996850
vt 0.522476 -0.003760
vt 0.522476 0.996850
vt 0.419612 -0.003760
vt 0.998982 -0.001427
vt 0.998982 0.999183
vt 0.419612 0.996849
vt 0.666520 0.999183
vt -0.001933 0.996849
vt 0.330529 0.996850
vn 0.231805 0.972762 0.000000
vn 0.231804 0.972762 0.000000
vn -0.285634 0.958339 0.000000
vn -0.285632 0.958339 0.000000
vn -0.726535 0.687129 0.000000
vn -0.726535 0.687130 0.000000
vn -0.972762 0.231805 -0.000000
vn -0.972762 0.231804 -0.000000
vn -0.958339 -0.285634 -0.000000
vn -0.958340 -0.285631 -0.000000
vn -0.687129 -0.726536 -0.000000
vn -0.687131 -0.726534 -0.000000
vn -0.231804 -0.972763 -0.000000
vn -0.231804 -0.972762 -0.000000
vn 0.285632 -0.958339 -0.000000
vn 0.726534 -0.687131 -0.000000
vn 0.726534 -0.687130 0.000000
vn 0.972762 -0.231805 -0.000000
vn 0.958339 0.285633 0.000000
vn 0.687131 0.726534 0.000000
vn 0.687130 0.726535 0.000000
vn -0.219215 0.975677 0.000000
vn -0.219213 0.975677 0.000000
vn -0.677684 0.735354 0.000000
vn -0.677683 0.735354 0.000000
vn -0.954568 0.297993 0.000000
vn -0.954568 0.297992 0.000000
vn -0.975677 -0.219215 0.000000
vn -0.975677 -0.219214 0.000000
vn -0.735353 -0.677684 0.000000
vn -0.735354 -0.677683 -0.000000
vn -0.297994 -0.954568 -0.000000
vn -0.297993 -0.954568 -0.000000
vn 0.219214 -0.975677 -0.000000
vn 0.677683 -0.735354 -0.000000
vn 0.954568 -0.297994 -0.000000
vn 0.975677 0.219214 -0.000000
vn 0.975677 0.219213 -0.000000
vn 0.735354 0.677683 -0.000000
vn 0.297993 0.954568 0.000000
s 1
f 1/1/1 2/2/2 3/3/3
f 3/3/3 4/4/4 5/5/5
f 5/5/5 6/6/6 7/7/7
f 7/8/7 8/9/8 9/10/9
f 9/10/9 10/11/10 11/12/11
f 11/12/11 12/13/12 13/14/13
f 13/14/13 14/15/14 15/16/15
f 15/17/15 16/18/15 17/19/16
f 17/19/16 18/20/17 19/21/18
f 19/21/18 20/22/18 21/23/19
f 23/24/20 24/25/21 1/1/1
f 21/23/19 22/26/19 23/8/20
f 25/1/22 26/2/23 27/3/24
f 27/3/24 28/4/25 29/5/26
f 29/5/26 30/6/27 31/7/28
f 31/8/28 32/9/29 33/10/30
f 33/10/30 34/11/31 35/12/32
f 35/12/32 36/13/33 37/14/34
f 37/14/34 38/15/34 39/16/35
f 39/17/35 40/18/35 41/19/36
f 41/19/36 42/20/36 43/21/37
f 43/21/37 44/22/38 45/23/39
f 47/24/40 48/25/40 25/1/22
f 45/23/39 46/26/39 47/8/40
f 2/2/2 4/4/4 3/3/3
f 4/4/4 6/6/6 5/5/5
f 6/6/6 8/27/8 7/7/7
f 8/9/8 10/11/10 9/10/9
f 10/11/10 12/13/12 11/12/11
f 12/13/12 14/15/14 13/14/13
f 14/15/14 16/28/15 15/16/15
f 16/18/15 18/20/17 17/19/16
f 18/20/17 20/22/18 19/21/18
f 20/22/18 22/26/19 21/23/19
f 24/25/21 2/2/2 1/1/1
f 22/26/19 24/29/21 23/8/20
f 26/2/23 28/4/25 27/3/24
f 28/4/25 30/6/27 29/5/26
f 30/6/27 32/27/29 31/7/28
f 32/9/29 34/11/31 33/10/30
f 34/11/31 36/13/33 35/12/32
f 36/13/33 38/15/34 37/14/34
f 38/15/34 40/28/35 39/16/35
f 40/18/35 42/20/36 41/19/36
f 42/20/36 44/22/38 43/21/37
f 44/22/38 46/26/39 45/23/39
f 48/25/40 26/2/23 25/1/22
f 46/26/39 48/29/40 47/8/40
