# Blender v2.69 (sub 0) OBJ File: 'tunnel_1.blend'
# www.blender.org
o Cube
v 0.115356 0.971195 0.539952
v 0.115356 0.971195 0.460048
v 0.124414 0.981416 0.539952
v 0.124414 0.981416 0.460048
v 0.058251 0.983907 0.539952
v 0.058251 0.983907 0.460048
v 0.057871 0.988470 0.539952
v 0.057871 0.988470 0.460048
v 0.118429 0.923739 0.539952
v 0.109670 0.919051 0.460048
v 0.109670 0.919051 0.539952
v 0.118429 0.923739 0.460048
v 0.129619 0.906039 0.539952
v 0.124074 0.898802 0.460048
v 0.124074 0.898802 0.539952
v 0.129619 0.906039 0.460048
v 0.213369 0.947840 0.539952
v 0.213369 0.947840 0.460048
v 0.209893 0.961047 0.539952
v 0.209893 0.961047 0.460048
v 0.148745 0.893981 0.539952
v 0.146414 0.884195 0.539952
v 0.148745 0.893981 0.460048
v 0.146414 0.884195 0.460048
v 0.270070 0.933431 0.539952
v 0.270070 0.933431 0.460048
v 0.272467 0.937332 0.539952
v 0.272467 0.937333 0.460048
v 0.189225 0.906869 0.539952
v 0.194928 0.898735 0.460048
v 0.194928 0.898735 0.539952
v 0.189225 0.906869 0.460048
v 0.171254 0.896118 0.539952
v 0.172940 0.887158 0.460048
v 0.172940 0.887158 0.539952
v 0.171254 0.896118 0.460048
v 0.115356 0.971196 -0.460048
v 0.115356 0.971196 -0.539952
v 0.124414 0.981416 -0.460048
v 0.124414 0.981416 -0.539952
v 0.058251 0.983907 -0.460048
v 0.058251 0.983907 -0.539952
v 0.057871 0.988470 -0.460048
v 0.057871 0.988470 -0.539952
v 0.118429 0.923739 -0.460048
v 0.109670 0.919051 -0.539952
v 0.109670 0.919051 -0.460048
v 0.118429 0.923739 -0.539952
v 0.129619 0.906039 -0.460048
v 0.124074 0.898802 -0.539952
v 0.124074 0.898802 -0.460048
v 0.129619 0.906039 -0.539952
v 0.213369 0.947840 -0.460048
v 0.213369 0.947840 -0.539952
v 0.209893 0.961047 -0.460048
v 0.209893 0.961047 -0.539952
v 0.148745 0.893981 -0.460048
v 0.146414 0.884196 -0.460048
v 0.148745 0.893981 -0.539952
v 0.146414 0.884196 -0.539952
v 0.270070 0.933431 -0.460048
v 0.270070 0.933431 -0.539952
v 0.272467 0.937333 -0.460048
v 0.272467 0.937333 -0.539952
v 0.189225 0.906869 -0.460048
v 0.194928 0.898735 -0.539952
v 0.194928 0.898735 -0.460048
v 0.189225 0.906869 -0.539952
v 0.171254 0.896118 -0.460048
v 0.172940 0.887158 -0.539952
v 0.172940 0.887158 -0.460048
v 0.171254 0.896118 -0.539952
v -0.204962 0.949583 0.539952
v -0.204962 0.949583 0.460048
v -0.201316 0.962744 0.539952
v -0.201316 0.962744 0.460048
v -0.261845 0.935908 0.539952
v -0.261845 0.935908 0.460048
v -0.264191 0.939840 0.539952
v -0.264191 0.939840 0.460048
v -0.181349 0.908303 0.539952
v -0.187157 0.900243 0.460048
v -0.187157 0.900243 0.539952
v -0.181349 0.908303 0.460048
v -0.163519 0.897321 0.539952
v -0.165321 0.888384 0.460048
v -0.165321 0.888384 0.539952
v -0.163519 0.897321 0.460048
v -0.106656 0.971670 0.539952
v -0.106656 0.971670 0.460048
v -0.115581 0.982007 0.539952
v -0.115581 0.982007 0.460048
v -0.141040 0.894893 0.539952
v -0.138835 0.885078 0.539952
v -0.141040 0.894893 0.460048
v -0.138835 0.885079 0.460048
v -0.049391 0.983642 0.539952
v -0.049391 0.983642 0.460048
v -0.048952 0.988200 0.539952
v -0.048952 0.988200 0.460048
v -0.110341 0.924257 0.539952
v -0.101644 0.919456 0.460048
v -0.101644 0.919456 0.539952
v -0.110341 0.924257 0.460048
v -0.121760 0.906703 0.539952
v -0.116309 0.899396 0.460048
v -0.116309 0.899396 0.539952
v -0.121760 0.906703 0.460048
v -0.204962 0.949583 -0.460048
v -0.204962 0.949583 -0.539952
v -0.201316 0.962744 -0.460048
v -0.201316 0.962744 -0.539952
v -0.261845 0.935909 -0.460048
v -0.261845 0.935909 -0.539952
v -0.264191 0.939840 -0.460048
v -0.264191 0.939840 -0.539952
v -0.181349 0.908303 -0.460048
v -0.187157 0.900244 -0.539952
v -0.187157 0.900244 -0.460048
v -0.181349 0.908303 -0.539952
v -0.163520 0.897321 -0.460048
v -0.165321 0.888384 -0.539952
v -0.165321 0.888384 -0.460048
v -0.163520 0.897321 -0.539952
v -0.106656 0.971670 -0.460048
v -0.106656 0.971670 -0.539952
v -0.115581 0.982007 -0.460048
v -0.115581 0.982007 -0.539952
v -0.141040 0.894893 -0.460048
v -0.138835 0.885079 -0.460048
v -0.141040 0.894893 -0.539952
v -0.138835 0.885079 -0.539952
v -0.049391 0.983642 -0.460048
v -0.049391 0.983642 -0.539952
v -0.048952 0.988200 -0.460048
v -0.048952 0.988200 -0.539952
v -0.110341 0.924257 -0.460048
v -0.101644 0.919457 -0.539952
v -0.101644 0.919457 -0.460048
v -0.110341 0.924257 -0.539952
v -0.121760 0.906703 -0.460048
v -0.116309 0.899396 -0.539952
v -0.116309 0.899396 -0.460048
v -0.121760 0.906703 -0.539952
vt 0.914196 1.379495
vt 0.832173 3.773423
vt 0.951653 1.108100
vt -0.058410 -0.176733
vt -0.058410 0.521030
vt 0.474960 -0.176733
vt 0.588477 1.115915
vt 0.317689 1.115915
vt 0.588477 3.270774
vt 0.647180 3.043788
vt 0.588478 3.355047
vt 0.607293 3.773423
vt 0.317689 0.874962
vt 0.317689 0.455572
vt 0.200981 0.874962
vt 0.588477 0.036181
vt 0.632780 0.534649
vt 0.832173 0.549593
vt 0.876476 3.274956
vt 1.075869 3.260012
vt 0.890876 0.765817
vt 0.919012 0.420931
vt 0.588477 0.426917
vt 0.317688 0.426917
vt 0.670500 2.430110
vt 0.707957 2.701505
vt 0.675316 3.388674
vt 0.832173 0.454558
vt 0.850989 0.036181
vt 0.317688 0.036181
vt 0.828861 0.368132
vt 0.474960 0.521030
vt 0.317689 3.270774
vt 0.200981 0.455572
vt 1.072557 3.441472
vn 0.000000 0.000000 1.000000
vn -0.747429 -0.194708 0.635151
vn -0.368542 -0.263985 -0.891324
vn -0.368542 -0.263985 0.891324
vn -0.605640 -0.528428 -0.594897
vn -0.747429 -0.194708 -0.635151
vn 0.000004 0.000000 -1.000000
vn -0.000002 0.000000 -1.000000
vn -0.178442 -0.748802 -0.638264
vn -0.748167 -0.062286 0.660581
vn -0.748167 -0.062288 -0.660580
vn -0.605640 -0.528428 0.594897
vn 0.000000 0.000000 -1.000000
vn -0.516007 -0.536637 0.667592
vn -0.516007 -0.536637 -0.667592
vn 0.000003 0.000000 -1.000000
vn -0.178442 -0.748802 0.638264
vn 0.579272 -0.510849 0.635151
vn -0.000004 0.000000 1.000000
vn 0.209876 -0.401807 -0.891324
vn 0.302225 -0.744774 -0.594897
vn 0.209876 -0.401807 0.891324
vn 0.579272 -0.510849 -0.635151
vn 0.218513 -0.711692 -0.667592
vn 0.639672 -0.393003 0.660582
vn 0.302225 -0.744774 0.594897
vn 0.639674 -0.393001 -0.660582
vn 0.218513 -0.711692 0.667592
vn -0.000001 0.000000 -1.000000
vn -0.000003 0.000000 1.000000
vn -0.748167 -0.062288 0.660581
vn 0.000001 0.000000 -1.000000
vn 0.000006 0.000000 1.000000
vn 0.579302 -0.510849 0.635151
vn 0.000002 0.000000 1.000000
vn 0.639671 -0.393012 0.660577
vn 0.639674 -0.393007 -0.660578
vn -0.000001 0.000000 1.000000
vn -0.585833 -0.503311 0.635151
vn -0.215064 -0.399060 -0.891324
vn -0.215064 -0.399060 0.891324
vn -0.311838 -0.740806 -0.594897
vn -0.585833 -0.503311 -0.635151
vn 0.168737 -0.751061 -0.638264
vn -0.644691 -0.384718 0.660579
vn -0.644705 -0.384696 -0.660579
vn -0.311838 -0.740806 0.594897
vn -0.227699 -0.708823 0.667592
vn -0.227699 -0.708823 -0.667592
vn 0.168737 -0.751061 0.638264
vn 0.000001 0.000000 1.000000
vn 0.744835 -0.204352 0.635151
vn 0.365093 -0.268715 -0.891324
vn 0.598773 -0.536210 -0.594897
vn 0.365093 -0.268715 0.891324
vn 0.744835 -0.204352 -0.635151
vn -0.000007 0.000000 -1.000000
vn 0.509018 -0.543290 -0.667592
vn 0.747300 -0.071953 0.660580
vn 0.598773 -0.536210 0.594897
vn 0.747299 -0.071954 -0.660580
vn 0.509018 -0.543260 0.667592
vn 0.000002 0.000000 -1.000000
vn 0.000003 0.000000 1.000000
vn -0.215033 -0.399060 -0.891324
vn -0.215033 -0.399060 0.891324
vn -0.644701 -0.384701 0.660580
vn -0.644702 -0.384701 -0.660579
vn 0.000005 0.000000 1.000000
vn -0.000005 0.000000 -1.000000
vn 0.000005 0.000000 -1.000000
vn 0.509018 -0.543260 -0.667592
vn 0.747300 -0.071954 0.660580
vn 0.747300 -0.071952 -0.660580
s 1
f 9/1/1 3/2/1 11/3/2
f 2/4/3 1/5/4 6/6/5
f 10/7/6 11/8/2 2/9/3
f 16/10/7 23/11/8 24/12/9
f 7/13/10 8/14/11 5/15/12
f 4/16/13 2/17/3 6/18/5
f 1/19/4 3/2/1 5/20/12
f 13/21/1 9/1/1 15/22/14
f 14/23/15 15/24/14 10/7/6
f 4/16/13 12/25/16 10/26/6
f 12/25/16 16/10/7 14/27/15
f 21/28/1 13/21/1 22/29/17
f 24/16/9 22/30/17 14/23/15
f 29/1/1 31/3/18 19/2/19
f 18/4/20 26/6/21 17/5/22
f 30/7/23 18/9/20 31/8/18
f 36/10/13 34/27/24 24/12/9
f 27/13/25 25/15/26 28/14/27
f 20/16/13 28/31/27 26/18/21
f 17/19/22 25/20/26 19/2/19
f 33/21/1 35/22/28 29/1/1
f 34/23/24 30/7/23 35/24/28
f 20/16/13 18/17/20 30/26/23
f 32/25/29 30/26/23 34/27/24
f 21/28/1 22/29/17 33/21/1
f 24/16/9 34/23/24 22/30/17
f 45/1/30 39/2/1 47/3/2
f 38/4/3 37/5/4 42/6/5
f 46/7/6 47/8/2 38/9/3
f 52/10/13 59/11/13 60/12/9
f 43/13/31 44/14/11 41/15/12
f 40/16/32 38/17/3 42/18/5
f 37/19/4 39/2/1 41/20/12
f 49/21/1 45/1/30 51/22/14
f 50/23/15 51/24/14 46/7/6
f 40/16/32 48/25/29 46/26/6
f 48/25/29 52/10/13 50/27/15
f 57/28/1 49/21/1 58/29/17
f 60/16/9 58/30/17 50/23/15
f 65/1/33 67/3/34 55/2/35
f 54/4/20 62/6/21 53/5/22
f 66/7/23 54/9/20 67/8/34
f 72/10/29 70/27/24 60/12/9
f 63/13/36 61/15/26 64/14/37
f 56/16/29 64/31/37 62/18/21
f 53/19/22 61/20/26 55/2/35
f 69/21/38 71/22/28 65/1/33
f 70/23/24 66/7/23 71/24/28
f 56/16/29 54/17/20 66/26/23
f 68/25/13 66/26/23 70/27/24
f 57/28/1 58/29/17 69/21/38
f 60/16/9 70/23/24 58/30/17
f 81/1/1 75/2/1 83/3/39
f 74/4/40 73/5/41 78/6/42
f 82/7/43 83/8/39 74/9/40
f 88/10/13 95/11/13 96/12/44
f 79/13/45 80/14/46 77/15/47
f 76/16/29 74/17/40 78/18/42
f 73/19/41 75/2/1 77/20/47
f 85/21/33 81/1/1 87/22/48
f 86/23/49 87/24/48 82/7/43
f 76/16/29 84/25/29 82/26/43
f 84/25/29 88/10/13 86/27/49
f 93/28/1 85/21/33 94/29/50
f 96/16/44 94/30/50 86/23/49
f 101/1/51 103/3/52 91/2/1
f 90/4/53 98/6/54 89/5/55
f 102/7/56 90/9/53 103/8/52
f 108/10/57 106/27/58 96/12/44
f 99/13/59 97/15/60 100/14/61
f 92/16/13 100/31/61 98/18/54
f 89/19/55 97/20/60 91/2/1
f 105/21/33 107/22/62 101/1/51
f 106/23/58 102/7/56 107/24/62
f 92/16/13 90/17/53 102/26/56
f 104/25/63 102/26/56 106/27/58
f 93/28/1 94/29/50 105/21/33
f 96/16/44 106/23/58 94/30/50
f 117/1/19 111/2/64 119/3/39
f 110/4/65 109/5/66 114/6/42
f 118/7/43 119/8/39 110/9/65
f 124/10/63 131/11/63 132/12/44
f 115/13/67 116/14/68 113/15/47
f 112/16/13 110/17/65 114/18/42
f 109/19/66 111/2/64 113/20/47
f 121/21/69 117/1/19 123/22/48
f 122/23/49 123/24/48 118/7/43
f 112/16/13 120/25/70 118/26/43
f 120/25/70 124/10/63 122/27/49
f 129/28/35 121/21/69 130/29/50
f 132/16/44 130/30/50 122/23/49
f 137/1/51 139/3/52 127/2/38
f 126/4/53 134/6/54 125/5/55
f 138/7/56 126/9/53 139/8/52
f 144/10/71 142/27/72 132/12/44
f 135/13/73 133/15/60 136/14/74
f 128/16/13 136/31/74 134/18/54
f 125/19/55 133/20/60 127/2/38
f 141/21/69 143/22/62 137/1/51
f 142/23/72 138/7/56 143/24/62
f 128/16/13 126/17/53 138/26/56
f 140/25/32 138/26/56 142/27/72
f 129/28/35 130/29/50 141/21/69
f 132/16/44 142/23/72 130/30/50
f 3/2/1 1/19/4 11/3/2
f 1/5/4 5/32/12 6/6/5
f 11/8/2 1/33/4 2/9/3
f 14/27/15 16/10/7 24/12/9
f 8/14/11 6/34/5 5/15/12
f 8/31/11 4/16/13 6/18/5
f 3/2/1 7/35/10 5/20/12
f 9/1/1 11/3/2 15/22/14
f 15/24/14 11/8/2 10/7/6
f 2/17/3 4/16/13 10/26/6
f 10/26/6 12/25/16 14/27/15
f 13/21/1 15/22/14 22/29/17
f 22/30/17 15/24/14 14/23/15
f 31/3/18 17/19/22 19/2/19
f 26/6/21 25/32/26 17/5/22
f 18/9/20 17/33/22 31/8/18
f 23/11/8 36/10/13 24/12/9
f 25/15/26 26/34/21 28/14/27
f 18/17/20 20/16/13 26/18/21
f 25/20/26 27/35/25 19/2/19
f 35/22/28 31/3/18 29/1/1
f 30/7/23 31/8/18 35/24/28
f 32/25/29 20/16/13 30/26/23
f 36/10/13 32/25/29 34/27/24
f 22/29/17 35/22/28 33/21/1
f 34/23/24 35/24/28 22/30/17
f 39/2/1 37/19/4 47/3/2
f 37/5/4 41/32/12 42/6/5
f 47/8/2 37/33/4 38/9/3
f 50/27/15 52/10/13 60/12/9
f 44/14/11 42/34/5 41/15/12
f 44/31/11 40/16/32 42/18/5
f 39/2/1 43/35/31 41/20/12
f 45/1/30 47/3/2 51/22/14
f 51/24/14 47/8/2 46/7/6
f 38/17/3 40/16/32 46/26/6
f 46/26/6 48/25/29 50/27/15
f 49/21/1 51/22/14 58/29/17
f 58/30/17 51/24/14 50/23/15
f 67/3/34 53/19/22 55/2/35
f 62/6/21 61/32/26 53/5/22
f 54/9/20 53/33/22 67/8/34
f 59/11/13 72/10/29 60/12/9
f 61/15/26 62/34/21 64/14/37
f 54/17/20 56/16/29 62/18/21
f 61/20/26 63/35/36 55/2/35
f 71/22/28 67/3/34 65/1/33
f 66/7/23 67/8/34 71/24/28
f 68/25/13 56/16/29 66/26/23
f 72/10/29 68/25/13 70/27/24
f 58/29/17 71/22/28 69/21/38
f 70/23/24 71/24/28 58/30/17
f 75/2/1 73/19/41 83/3/39
f 73/5/41 77/32/47 78/6/42
f 83/8/39 73/33/41 74/9/40
f 86/27/49 88/10/13 96/12/44
f 80/14/46 78/34/42 77/15/47
f 80/31/46 76/16/29 78/18/42
f 75/2/1 79/35/45 77/20/47
f 81/1/1 83/3/39 87/22/48
f 87/24/48 83/8/39 82/7/43
f 74/17/40 76/16/29 82/26/43
f 82/26/43 84/25/29 86/27/49
f 85/21/33 87/22/48 94/29/50
f 94/30/50 87/24/48 86/23/49
f 103/3/52 89/19/55 91/2/1
f 98/6/54 97/32/60 89/5/55
f 90/9/53 89/33/55 103/8/52
f 95/11/13 108/10/57 96/12/44
f 97/15/60 98/34/54 100/14/61
f 90/17/53 92/16/13 98/18/54
f 97/20/60 99/35/59 91/2/1
f 107/22/62 103/3/52 101/1/51
f 102/7/56 103/8/52 107/24/62
f 104/25/63 92/16/13 102/26/56
f 108/10/57 104/25/63 106/27/58
f 94/29/50 107/22/62 105/21/33
f 106/23/58 107/24/62 94/30/50
f 111/2/64 109/19/66 119/3/39
f 109/5/66 113/32/47 114/6/42
f 119/8/39 109/33/66 110/9/65
f 122/27/49 124/10/63 132/12/44
f 116/14/68 114/34/42 113/15/47
f 116/31/68 112/16/13 114/18/42
f 111/2/64 115/35/67 113/20/47
f 117/1/19 119/3/39 123/22/48
f 123/24/48 119/8/39 118/7/43
f 110/17/65 112/16/13 118/26/43
f 118/26/43 120/25/70 122/27/49
f 121/21/69 123/22/48 130/29/50
f 130/30/50 123/24/48 122/23/49
f 139/3/52 125/19/55 127/2/38
f 134/6/54 133/32/60 125/5/55
f 126/9/53 125/33/55 139/8/52
f 131/11/63 144/10/71 132/12/44
f 133/15/60 134/34/54 136/14/74
f 126/17/53 128/16/13 134/18/54
f 133/20/60 135/35/73 127/2/38
f 143/22/62 139/3/52 137/1/51
f 138/7/56 139/8/52 143/24/62
f 140/25/32 128/16/13 138/26/56
f 144/10/71 140/25/32 142/27/72
f 130/29/50 143/22/62 141/21/69
f 142/23/72 143/24/62 130/30/50
